<svg xmlns="http://www.w3.org/2000/svg" viewBox="0 0 688.2 163.8"><path fill="#00A551" d="M0 0h18.6v127.1H0z"/><path fill="#0066B2" d="M29.3 0h18.6v127.1H29.3zM55.1.1h54.2v20.6H55.1zM55.1 40h54.2v20.6H55.1z"/><path fill="#00A551" d="M55.1 74.2h54.2v20.6H55.1zM55.1 106.6h54.2v20.6H55.1z"/><path fill="#0066B2" d="M18.8 150.3c2.6 0 4.3.1 5.1.4.8.3 1.4.7 1.8 1.4.4.6.6 1.4.6 2.3 0 1.1-.3 1.9-.8 2.6-.5.6-1.2 1-2.1 1.2-.6.1-1.9.2-4 .2h-5.3v-8.1h4.7zm-1.4-12c2.7 0 4.4 0 4.9.1 1 .1 1.7.5 2.2 1.1.5.6.7 1.3.7 2.3 0 1-.3 1.8-.8 2.4-.6.6-1.3 1-2.3 1.1-.5.1-1.9.1-4.2.1h-3.8v-7h3.3zm-9 25.1h9.7c3.7 0 6-.1 6.9-.2 1.5-.2 2.8-.7 3.9-1.4 1-.8 1.9-1.8 2.5-3.1.6-1.3.9-2.6.9-4 0-1.7-.5-3.3-1.4-4.5-.9-1.3-2.3-2.2-4-2.7 1.2-.6 2.2-1.5 2.9-2.7.7-1.2 1.1-2.5 1.1-3.9 0-1.3-.3-2.5-.9-3.5-.6-1-1.3-1.9-2.2-2.5-.9-.6-1.9-1-3-1.2-1.1-.2-2.8-.3-5.1-.3H8.4v30zM51.4 162.9v-12.6h12.7v-5H51.4v-7h14.8v-5h-21v29.6zM94 157.2c-1.1 1-2.5 1.5-4.1 1.5-2.2 0-3.9-.8-5.2-2.4-1.3-1.6-2-4.2-2-8 0-3.5.7-6.1 2-7.6 1.4-1.6 3.1-2.4 5.3-2.4 1.6 0 2.9.4 4 1.3s1.8 2.1 2.2 3.6l5.9-1.4c-.7-2.4-1.7-4.2-3-5.4-2.3-2.1-5.2-3.2-8.8-3.2-4.1 0-7.5 1.4-10 4.1-2.5 2.7-3.8 6.5-3.8 11.5 0 4.7 1.3 8.3 3.8 11 2.5 2.7 5.8 4 9.7 4 3.2 0 5.8-.8 7.9-2.3 2.1-1.6 3.5-4 4.4-7.2l-5.8-1.8c-.6 2.1-1.4 3.7-2.5 4.7M688.2 60.2h-5V69h5v-8.8zm-23.8-29.4c2.2 0 3.6.1 4.4.4 1 .4 1.8 1.1 2.5 2.2.6 1.1 1.1 2.6 1.5 4.5.4 1.9.5 4.6.5 8.2s-.2 6.4-.5 8.4c-.4 2.1-.8 3.5-1.4 4.4-.6.9-1.3 1.5-2.1 1.9-.7.3-1.7.4-3.2.4h-4V30.8h2.3zm-7.7 38.3h10c2 0 3.5-.3 4.7-1 1.6-.9 2.8-2.1 3.7-3.7 1.2-2.1 2.2-4.8 2.8-8.1.5-2.7.8-6 .8-9.8 0-4.3-.3-7.9-.9-10.9-.6-2.9-1.4-5.4-2.5-7.5-1.1-2-2.4-3.4-4-4.2-1.1-.6-2.8-.9-5-.9h-9.7v46.1zm-11.2 0V30.8h7.8V23h-20.9v7.8h7.8V69h5.3zm-12.2 0v-7.8h-13.2V23.4h-5.3V69h18.5zm-40.5 0V49.8l9.7-26.7h-6.1l-6.1 18.2-6.2-18.3h-6.2l9.6 26.6V69h5.3zm-33.7 0v-30l10.6 30h5.3V23h-4.9v30.7L559.4 23h-5.2v46h4.9zm-24.7-18.2l3.5-17.1 3.6 17.1h-7.1zm6.4-27.9h-5.6L525 69h5.6l2.2-10.5h10.5l2.3 10.5h5.8l-10.6-46zm-27 7.8c1.9 0 3.2.1 3.8.3.9.3 1.6 1 2.1 2 .6 1.1.8 2.5.8 4.1 0 1.4-.2 2.6-.6 3.6-.4 1-1 1.8-1.7 2.3-.7.5-2.1.7-4.2.7h-2.9v-13h2.7zm-2.6 38.3V51.7h3.5c2.4 0 4.2-.2 5.5-.7.9-.4 1.8-1.1 2.7-2.2.9-1.1 1.6-2.6 2.2-4.5.6-1.9.9-4.3.9-7.1 0-3.7-.5-6.6-1.5-9-1-2.3-2.3-3.8-3.8-4.5-1-.5-3.1-.7-6.3-.7h-8.5v46h5.3zm-31 0V32.8l5.2 36.2h5.1l5.2-36.2V69h4.9V23h-8L488 54.4 483.2 23h-7.9v46h4.9zm-27-35c1.3-2.6 3.1-3.9 5.3-3.9 2.2 0 3.9 1.3 5.3 3.9 1.3 2.6 2 6.5 2 11.8 0 5.3-.7 9.3-2 12-1.4 2.7-3.1 4-5.2 4s-3.9-1.3-5.2-4c-1.4-2.7-2.1-6.6-2.1-11.8-.1-5.4.6-9.3 1.9-12m-4 29.5c2.3 4.2 5.4 6.3 9.3 6.3 3.9 0 6.9-2.1 9.2-6.3s3.5-10 3.5-17.4c0-7.5-1.2-13.3-3.5-17.5-2.3-4.2-5.4-6.3-9.3-6.3-2.1 0-4 .6-5.7 1.8-1.2.9-2.4 2.3-3.4 4.1-1 1.9-1.8 4-2.4 6.3-.8 3.2-1.2 7.1-1.2 11.8.1 7.3 1.2 13 3.5 17.2M435 59.5c-1 1.6-2.2 2.4-3.6 2.4-1.9 0-3.5-1.2-4.7-3.7-1.2-2.5-1.8-6.6-1.8-12.4 0-5.5.6-9.4 1.8-11.9 1.2-2.4 2.8-3.7 4.7-3.7 1.4 0 2.6.7 3.6 2.1s1.6 3.3 1.9 5.6l5.2-2.2c-.6-3.7-1.5-6.5-2.7-8.5-2-3.3-4.6-5-7.8-5-3.7 0-6.6 2.1-8.9 6.4-2.3 4.2-3.4 10.2-3.4 17.8 0 7.2 1.1 12.9 3.4 17.1 2.2 4.2 5.1 6.3 8.6 6.3 2.8 0 5.1-1.2 7-3.7 1.8-2.4 3.1-6.2 3.9-11.2l-5.1-2.9c-.4 3.5-1.1 6-2.1 7.5m-29.3 9.6v-7.8H391V48.8h13.2V41H391V30.8h14.2V23h-19.5v46h20zm-31.9-9.6c-1 1.6-2.2 2.4-3.6 2.4-1.9 0-3.5-1.2-4.7-3.7-1.2-2.5-1.8-6.6-1.8-12.4 0-5.5.6-9.4 1.8-11.9 1.2-2.4 2.8-3.7 4.7-3.7 1.4 0 2.6.7 3.6 2.1s1.6 3.3 1.9 5.6l5.2-2.2c-.6-3.7-1.5-6.5-2.7-8.5-2-3.3-4.6-5-7.8-5-3.7 0-6.6 2.1-8.9 6.4-2.3 4.2-3.4 10.2-3.4 17.8 0 7.2 1.1 12.9 3.4 17.1 2.2 4.2 5.1 6.3 8.6 6.3 2.8 0 5.1-1.2 7-3.7 1.8-2.4 3.1-6.2 3.9-11.2l-5.1-2.9c-.3 3.5-1.1 6-2.1 7.5m-36.1 9.6v-30l10.6 30h5.3V23h-4.9v30.7L337.9 23h-5.2v46h5zM313 50.9l3.5-17.1 3.6 17.1H313zm6.4-27.9h-5.6l-10.2 46h5.6l2.2-10.5h10.5l2.3 10.5h5.8l-10.6-46zm-34.7 46.1v-30l10.6 30h5.3V23h-4.9v30.7L284.9 23h-5.2v46h5zm-10-46.1h-5.3v46h5.3V23zm-22.2 46.1V49.5h11v-7.8h-11V30.8h12.7V23h-18v46h5.3zm-26.8 0V30.8h7.8V23h-20.9v7.8h7.8V69h5.3zm-33.8-3.3c1.8 2.7 4.3 4 7.6 4 2.3 0 4.2-.6 5.7-1.7s2.7-2.8 3.5-5.1c.8-2.3 1.3-4.8 1.3-7.4 0-2.9-.3-5.4-1-7.3-.7-2-1.7-3.5-2.9-4.7-1.2-1.1-3.1-2.2-5.7-3.3-2.6-1.1-4.2-2.1-4.9-3.1-.5-.8-.8-1.7-.8-2.8 0-1.2.3-2.1.8-2.9.9-1.1 2.1-1.7 3.6-1.7s2.6.5 3.4 1.6c.7 1 1.2 2.7 1.5 5.1l5.3-.4c-.1-4.2-1-7.6-2.6-10.1-1.7-2.5-4.1-3.8-7.4-3.8-2 0-3.7.5-5.2 1.6-1.4 1.1-2.5 2.6-3.3 4.7-.8 2-1.1 4.2-1.1 6.6 0 3.6.8 6.7 2.4 9.3 1.1 1.8 3.1 3.3 6 4.5 2.2 1 3.6 1.6 4.2 2 .9.6 1.5 1.2 1.9 2 .4.8.5 1.7.5 2.8 0 1.7-.4 3.2-1.3 4.4-.9 1.3-2.2 1.9-3.9 1.9-1.6 0-2.9-.7-3.8-2.1-.9-1.4-1.6-3.7-1.9-6.7l-5.2.9c.5 5.1 1.5 9.1 3.3 11.7m-6.3 3.3v-7.8h-14.7V48.8h13.2V41h-13.2V30.8h14.2V23h-19.5v46h20zM148.7 49c2.4 0 4 .2 4.7.7.7.4 1.3 1.1 1.7 2.1.4 1 .6 2.1.6 3.5 0 1.6-.2 2.9-.7 3.9-.5 1-1.1 1.6-1.9 1.8-.5.2-1.7.3-3.6.3h-4.9V49h4.1zm-1.2-18.3c2.5 0 4 .1 4.5.2.9.2 1.5.7 2 1.6.4.9.7 2 .7 3.5s-.3 2.7-.8 3.6c-.5.9-1.2 1.5-2.1 1.6-.5.1-1.8.2-3.8.2h-3.5V30.7h3zm-8.4 38.4h8.9c3.4 0 5.5-.1 6.4-.3 1.4-.3 2.6-1 3.6-2.2 1-1.2 1.7-2.8 2.3-4.7.6-2 .8-4 .8-6.1 0-2.7-.4-5-1.3-6.9-.9-2-2.1-3.4-3.7-4.2 1.1-.9 2-2.2 2.7-4 .7-1.8 1-3.8 1-5.9 0-2-.3-3.8-.8-5.4-.5-1.6-1.2-2.9-2-3.8-.8-1-1.7-1.6-2.7-1.9-1-.3-2.6-.5-4.6-.5h-10.5v45.9z"/><g fill="#00A551"><path d="M679.1 96.5h-21c-1.4-3.2-3.5-5.8-6.2-7.6-2.7-1.9-5.8-2.8-9.1-2.8s-6.3.9-9.1 2.8-4.9 4.4-6.3 7.6h-3.2v3.4h3V132h4.7V99.9H669v5.3c-4.2 0-7.5 2-10 5.8v-2.1c-2.4-2.4-5.2-3.6-8.5-3.6s-6.3 1.3-8.8 3.8c-2.5 2.6-3.7 5.6-3.7 9.2 0 3.6 1.2 6.8 3.7 9.5 2.5 2.8 5.4 4.1 8.7 4.1 2.1 0 4.2-.6 6.2-1.8v-6c-1.6 2-3.6 3-6 3-2.2 0-4.1-.8-5.7-2.5-1.6-1.6-2.3-3.7-2.3-6.1 0-2.4.8-4.4 2.3-6.1 1.6-1.6 3.5-2.5 5.7-2.5 3.1 0 5.4 1.5 6.9 4.4-.4 1.4-.6 3-.6 5l5.1 2.6c-.5-1.1-.7-2.3-.7-3.5 0-2.3.8-4.3 2.3-6 1.5-1.7 3.3-2.5 5.5-2.6V132h4.8V99.9h5.3v-3.4zm-37.2 0h-9.4c2.6-4 6-6.1 10.4-6.1s7.9 2 10.4 6.1h-11.4zM599.2 89c-2.1-1.9-4.6-2.9-7.5-2.9-3 0-5.5 1-7.6 2.8-2.1 1.9-3.4 4.4-3.8 7.5H449v3.4h22.7v17c0 2.3-.7 4.2-2.2 5.7-1.4 1.5-3.2 2.2-5.4 2.2s-4.1-.8-5.6-2.3c-1.5-1.6-2.2-3.5-2.2-6 0-2.3.8-4.3 2.3-6 1.5-1.7 3.3-2.5 5.5-2.5 2.3 0 4.3 1 5.8 3v-6.3c-2-1.2-4-1.7-6-1.7-3.3 0-6.1 1.4-8.5 4.2-2.4 2.8-3.6 6-3.6 9.6 0 3.6 1.2 6.7 3.7 9.3 2.4 2.6 5.3 3.9 8.7 3.9 2.8 0 5.4-1 7.6-3v5.3h4.8v-17.1c0-1.8.8-3.5 2.5-4.9 1.7-1.5 3.4-2.2 5.1-2.2 2 0 3.8.8 5.4 2.5 1.6 1.6 2.4 3.6 2.4 5.8 0 2.2-.8 4.2-2.4 5.9-1.6 1.8-3.4 2.6-5.5 2.6-1.9 0-3.6-.8-5.2-2.3v6c1.8 1 3.6 1.5 5.5 1.5 3.3 0 6.1-1.4 8.5-4.2 2.4-2.8 3.6-6 3.6-9.6 0-3.6-1.2-6.7-3.7-9.2-2.4-2.6-5.3-3.9-8.7-3.9-2.8 0-5.4.9-7.6 2.8V100h42.2v20.1c0 2-.6 3.7-1.8 4.9-1.2 1.3-2.7 1.9-4.6 1.9-1.8 0-3.3-.6-4.5-1.9-1.2-1.3-1.8-2.9-1.8-4.9 0-1.9.6-3.6 1.9-4.9 1.3-1.4 2.8-2 4.6-2 2 0 3.6.8 4.9 2.5v-6.4c-1.7-.9-3.4-1.3-5.1-1.3-3 0-5.6 1.2-7.8 3.7s-3.3 5.3-3.3 8.6c0 3.2 1.1 6 3.3 8.3 2.2 2.3 4.8 3.5 7.8 3.5 3.1 0 5.8-1.2 7.9-3.5 2.2-2.3 3.3-5.1 3.3-8.5v-7h5.6V109h-5.6v-9h10v16.1c0 7.3 3.3 10.9 10 10.9h2.6c1.2-.2 2.4-.8 3.8-1.9v7.1h5V99.9h31.6v6.5h-14.9c-3 0-5.5 1.1-7.6 3.4-2.1 2.2-3.1 5-3.1 8.2 0 3.1 1.1 5.8 3.2 8.1s4.6 3.5 7.4 3.5c2.9 0 5.4-1.1 7.6-3.4 2.2-2.3 3.3-5 3.3-8.1 0-2.2-.6-4.3-1.7-6.3H575c2.2 1.4 3.3 3.4 3.3 6.1 0 2.1-.6 3.8-1.9 5.2-1.3 1.4-2.9 2.1-4.7 2.1-1.9 0-3.5-.7-4.7-2-1.2-1.4-1.8-3.1-1.8-5.1s.6-3.8 1.8-5.2c1.2-1.4 2.8-2.1 4.7-2.1h14.9v21.6h4.8V99.9h6.8V132h4.8V99.9h5.8v-3.4H603c-.4-3.1-1.7-5.6-3.8-7.5zM550 117.1c0 3.6-2.2 5.3-6.5 5.3-3.4 0-5.2-1.9-5.2-5.8V99.9H550v17.2zm46.9-20.6h-12.3c.4-1.8 1.3-3.2 2.5-4.3 1.3-1.1 2.8-1.6 4.5-1.6 1.7 0 3.2.5 4.5 1.6 1.3 1.1 2.1 2.5 2.5 4.3h-1.7zM390.9 96.5H231.4v3.4h3V116c0 7.3 3.3 10.9 10 10.9h2.6c1.2-.2 2.4-.8 3.8-1.9v7.1h5v-15.6c1-3.2 3.1-4.8 6.2-4.8 1.8 0 3.4.8 4.6 2.3 1.2 1.5 1.8 3.3 1.8 5.3s-.6 3.7-1.8 5.2c-1.2 1.5-2.7 2.3-4.5 2.3-1.1 0-2.2-.3-3.3-.8v5.6c1.1.3 2.2.5 3.3.5 3.1 0 5.7-1.4 7.7-4.1 2-2.5 2.9-5.5 2.9-8.9s-1-6.4-3-8.9c-2.2-2.6-4.8-3.9-7.8-3.9-2.2 0-4.3.8-6.2 2.3v-8.9h21.2V132h4.8V99.9h23.5v4h-8.4c-1.8 0-3.5.6-4.9 1.9-1.4 1.3-2.1 2.9-2.1 4.8 0 4.3 2.7 6.5 8 6.5h4.8c3.9 0 5.9 1.5 5.9 4.6 0 1.4-.5 2.5-1.4 3.3-1 .8-2.1 1.2-3.4 1.2-2.6 0-4.9-.8-7.1-2.3-.6-.4-2.5-2.1-5.7-5.1l-3.3 3.8 19.4 17.3 3.1-3.8-5.9-5.3c2.4 0 4.5-.9 6.2-2.7 1.7-1.8 2.5-4 2.5-6.6 0-3-1-5.3-3.1-6.9-1.8-1.4-4.1-2.1-7.1-2.1H299c-2.9 0-4.4-.7-4.4-2 0-.6.3-1.1.9-1.5.6-.3 1.2-.5 1.8-.5h12.8v-8.6H342v6.5h-14.9c-3 0-5.5 1.1-7.6 3.4-2.1 2.2-3.1 5-3.1 8.2 0 3.1 1.1 5.8 3.2 8.1s4.6 3.5 7.4 3.5c2.9 0 5.4-1.1 7.6-3.4 2.2-2.3 3.3-5 3.3-8.1 0-2.2-.6-4.3-1.7-6.3h-5.7c2.2 1.4 3.3 3.4 3.3 6.1 0 2.1-.6 3.8-1.9 5.2-1.3 1.4-2.9 2.1-4.7 2.1-1.9 0-3.5-.7-4.7-2-1.2-1.4-1.8-3.1-1.8-5.1s.6-3.8 1.8-5.2c1.2-1.4 2.8-2.1 4.7-2.1h14.9v21.6h4.8V99.9h6.9v32.3h4.8V99.9h47.9c3.1 1.9 4.7 4.9 4.7 9.1 0 2.5-.7 4.6-2.1 6.2-1.4 1.6-3.3 2.4-5.6 2.4-1.3 0-2.7-.5-4-1.5-.2-.2-1.3-1.2-3.2-3.1l-3.2 3.7 16.6 15.5h7.1l-10.8-10c4.2-1.1 7.1-3.6 8.6-7.4v2.5h8.9v14.9h4.6V99.9h5.4v-3.4H390.9zm-140.1 20.6c0 3.6-2.2 5.3-6.5 5.3-3.4 0-5.2-1.9-5.2-5.8V99.9h11.6v17.2zm172.8-17.2V113h-8.3c.3-1.3.5-2.6.5-4 0-3.9-1.1-6.9-3.2-9.1h11zM685 125.5c-.7-.7-1.5-1.1-2.6-1.1-1 0-1.8.3-2.5 1s-1 1.6-1 2.7.3 2 1 2.7c.7.7 1.5 1 2.5 1s1.8-.3 2.5-1c.7-.6 1-1.5 1-2.6.1-1-.2-2-.9-2.7z"/><path d="M367.7 109.7c-2.1 2.2-3.1 5-3.1 8.3 0 3.1 1.1 5.8 3.2 8.1s4.6 3.5 7.4 3.5c2.9 0 5.4-1.1 7.6-3.4 2.2-2.3 3.3-5 3.3-8.1 0-2.2-.6-4.3-1.7-6.3h-5.7c2.2 1.4 3.3 3.4 3.3 6.1 0 2.1-.6 3.8-1.9 5.2-1.3 1.4-2.9 2.1-4.7 2.1-1.9 0-3.5-.7-4.7-2-1.2-1.4-1.8-3.1-1.8-5.1s.6-3.8 1.8-5.2c1.2-1.4 2.8-2.1 4.7-2.1h14.9v-4.2l-14.9-.1c-3.1-.1-5.6 1-7.7 3.2zM184.5 96.5h-24.7c.9-1.2 1.9-2 3.1-2.2-1.8-1.1-3.6-2.9-5.4-5.2-2.1-2.7-3.6-4.4-4.5-5.2-1.9-1.6-4.3-2.6-7.1-3l-3.4 3.2c3.5.3 6.2 1.3 8 2.9.9.7 2.2 2.3 3.9 5 1.4 2 2.9 3.5 4.5 4.6H139v3.3h21.8V117c0 .5-.4 1.6-1.3 3l-8-11.3c.6-.2 1.3-.3 1.9-.3 2.9 0 4.9 1.4 6.3 4.2v-7c-2.1-1.5-4.2-2.2-6.4-2.2-3.1 0-5.8 1.3-8.2 3.9-2.3 2.6-3.5 5.6-3.5 9 0 3.4 1.2 6.2 3.5 8.7 2.3 2.4 5.1 3.6 8.2 3.6 2.9 0 5.4-1 7.6-3v6.5h4.7V99.9h3.3v.1h3.3v16.1c0 7.3 3.4 10.9 10.2 10.9 2.3 0 4-.5 5-1.6v-2c.6 1.7 1.6 3.2 2.8 4.6 2.5 2.7 5.5 4.1 9 4.1 3.6 0 6.7-1.3 9.2-4 2.5-2.7 3.8-6 3.8-9.8h-5c0 2.5-.7 4.6-2.2 6.1-1.5 1.6-3.4 2.4-5.7 2.4-2.3 0-4.2-.8-5.7-2.4-1.5-1.6-2.3-3.6-2.3-6.1 0-2.5.8-4.5 2.3-6.1 1.6-1.6 3.5-2.4 5.8-2.4 3.6 0 6.1 1.9 7.4 5.6l.4-.1V99.9h8.2v-3.4H184.5zm-31.4 27.6c-1.9 0-3.5-.8-4.9-2.4-1.4-1.6-2.1-3.4-2.1-5.5 0-1.8.5-3.4 1.6-4.8l8.7 11.9c-1.1.5-2.2.8-3.3.8zm29.4-1.9c-1.5 0-2.7-.4-3.8-1.3-1.2-.9-1.8-2.1-1.8-3.6v-13.2l9.5 16.7c-.9.9-2.2 1.4-3.9 1.4zm19.9-17.5c-1.1-.3-2.1-.4-3.2-.4-3.5 0-6.5 1.4-9 4.1-1.6 1.7-2.6 3.7-3.2 5.8l-8-14.3h23.6v4.8z"/></g></svg>